<?xml version="1.0" encoding="UTF-8" standalone="no"?>
<!-- Created with Inkscape (http://www.inkscape.org/) -->

<svg
   version="1.1"
   id="svg1"
   width="1024"
   height="1024"
   viewBox="0 0 1024 1024"
   sodipodi:docname="Designer (1).jpeg"
   inkscape:export-filename="gunpermit.svg"
   inkscape:export-xdpi="96"
   inkscape:export-ydpi="96"
   xmlns:inkscape="http://www.inkscape.org/namespaces/inkscape"
   xmlns:sodipodi="http://sodipodi.sourceforge.net/DTD/sodipodi-0.dtd"
   xmlns="http://www.w3.org/2000/svg"
   xmlns:svg="http://www.w3.org/2000/svg">
  <defs
     id="defs1" />
  <sodipodi:namedview
     id="namedview1"
     pagecolor="#ffffff"
     bordercolor="#000000"
     borderopacity="0.25"
     inkscape:showpageshadow="2"
     inkscape:pageopacity="0.0"
     inkscape:pagecheckerboard="0"
     inkscape:deskcolor="#d1d1d1"
     showgrid="false" />
  <g
     inkscape:groupmode="layer"
     inkscape:label="logo"
     id="g1">
    <g
       inkscape:groupmode="layer"
       id="layer1"
       inkscape:label="bg"
       sodipodi:insensitive="true">
      <rect
         style="display:inline;fill:#ffffff;fill-opacity:1;fill-rule:evenodd;stroke:none;stroke-width:0.773824;stroke-dasharray:none;stroke-opacity:1"
         id="rect9"
         width="1016.062"
         height="1031.5563"
         x="12.382264"
         y="-2.1917746" />
    </g>
    <path
       id="path8"
       style="display:inline;fill:#3c4a3e;fill-opacity:1;stroke:none;stroke-width:1.2845;stroke-opacity:1"
       d="m 987.97544,62.311686 c -0.46525,0 -4.42462,2.394004 -8.79734,5.320129 l -7.95019,5.320119 -4.81456,-3.875963 c -6.3103,-5.079468 -13.30186,-7.262607 -20.16481,-6.296454 -6.54288,0.921106 -22.50029,8.820717 -27.43726,13.582817 -3.43365,3.312019 -3.48549,3.603028 -3.48549,19.244209 V 111.48782 L 873.172,140.11344 c -23.18369,15.74446 -50.42388,34.1793 -60.53405,40.96541 -10.11018,6.78616 -38.06313,25.70449 -62.11837,42.04119 -45.02577,30.57851 -77.35653,52.43481 -99.517,67.2745 -25.12013,16.82161 -107.14672,71.34383 -137.89924,91.66029 -17.2745,11.41231 -44.08705,29.17497 -59.58346,39.4738 -57.6108,38.28782 -71.64002,47.59633 -86.33858,57.28514 -18.14741,11.96216 -26.57566,19.58261 -32.48066,29.36691 l -4.43609,7.35189 -8.24063,-0.75485 c -4.53215,-0.41454 -10.3171,-1.0862 -12.85497,-1.49388 -5.63664,-0.90549 -9.96358,2.76695 -9.96358,8.45705 0,4.94896 3.18088,7.62569 11.15182,9.38141 4.41335,0.97214 6.32884,1.96123 5.75855,2.97422 -0.46995,0.83477 -4.42537,6.89722 -8.79075,13.46981 -21.97784,33.09017 -34.43072,60.39881 -39.6783,87.02044 l -2.17183,11.01541 -17.04679,0.53789 c -19.85522,0.62494 -29.65223,3.06419 -47.93874,11.94202 -17.96126,8.71996 -20.42964,10.62917 -110.935082,85.77743 -13.857005,11.50569 -34.965357,29.01537 -46.906735,38.90878 -11.941395,9.89341 -24.200936,20.4395 -27.245823,23.43658 -10.7584612,10.58947 -13.1426144,22.62774 -6.8257586,34.47911 1.9174446,3.59743 17.5695206,24.61056 34.7823226,46.69687 17.21282,22.0863 38.321184,49.24057 46.906736,60.3407 12.14618,15.70361 16.86595,20.83157 21.26723,23.11114 9.30408,4.81886 18.83613,3.15678 26.75953,-4.66471 4.32069,-4.26512 24.03269,-38.31412 94.92249,-163.95433 l 10.46968,-18.5549 h 30.21421 c 31.19889,0 35.00689,-0.52307 40.20421,-5.52353 5.21515,-5.01766 5.56548,-9.97758 2.12342,-30.11499 -6.06275,-35.4696 -5.26483,-55.15165 3.19944,-78.97243 5.94449,-16.7295 21.74795,-42.76069 32.39704,-53.36173 l 4.27765,-4.25791 6.09961,5.52353 c 3.35387,3.03874 9.52081,7.36896 13.70433,9.62097 7.24816,3.90176 8.29253,4.09299 22.18482,4.09067 13.79196,-0.002 15.04712,-0.22936 23.26523,-4.21044 12.08478,-5.8542 23.32911,-17.73356 27.51648,-29.07086 4.34274,-11.75799 4.3741,-29.31885 0.0726,-42.12254 l -3.0256,-9.00174 3.59772,-2.71655 c 5.60316,-4.23286 85.30622,-57.02981 106.0831,-70.27131 4.36155,-2.77969 17.05796,-11.05712 28.21402,-18.39443 11.15606,-7.33734 39.39411,-25.78768 62.75209,-40.99933 23.358,-15.21163 45.32165,-29.57595 48.80791,-31.92301 7.00956,-4.71902 47.68471,-31.21698 88.74146,-57.80947 38.2756,-24.79113 40.05904,-26.11718 44.05057,-32.76148 6.07749,-10.11663 5.8548,-20.02391 -0.67554,-29.98165 -5.62314,-8.57443 -19.06789,-13.32948 -29.51887,-10.4391 -4.34781,1.20246 -33.78943,20.18123 -75.97452,48.97499 -5.57802,3.80731 -29.04438,19.48772 -52.14817,34.84523 l -42.00856,27.92276 -2.33027,-4.68959 c -1.28188,-2.57939 -2.51221,-5.05358 -2.73295,-5.49866 -0.22071,-0.44507 14.59842,-10.89767 32.92956,-23.22638 47.6975,-32.0793 153.80934,-103.2192 183.61554,-123.09967 44.19397,-29.47696 50.56118,-33.71484 84.24377,-56.06698 18.12858,-12.03032 41.23483,-27.4103 51.34502,-34.17852 10.11018,-6.76826 21.63544,-14.42577 25.61306,-17.018074 3.9778,-2.59228 7.2585,-5.304335 7.2901,-6.025256 0.072,-1.653597 -18.69231,-30.589594 -19.83697,-30.589594 z m 2.42489,67.708424 c -1.70301,0 -16.25385,9.02924 -34.26302,21.26242 -17.21691,11.69501 -45.28211,30.53114 -62.36481,41.85813 -17.08272,11.32703 -38.45776,25.57539 -47.50085,31.66311 l -16.44168,11.06966 3.12902,2.08601 c 1.7216,1.14712 5.12877,3.97258 7.56951,6.28065 2.44074,2.30805 4.89891,4.2136 5.46369,4.23304 1.3501,0.0463 81.90092,-52.00203 120.67641,-77.97577 8.36707,-5.60466 18.48509,-12.33036 22.48407,-14.94563 3.99904,-2.61526 8.18567,-6.57142 9.30346,-8.79153 3.88027,-7.7069 -0.46725,-16.74009 -8.0558,-16.74009 z m -480.57564,29.01435 c -7.28489,-0.20198 -14.65424,-0.20127 -22.1078,0.002 -50.03415,1.3659 -92.556,11.93406 -137.56258,34.18984 -98.54887,48.73249 -167.33696,136.63134 -190.38409,243.27482 -6.17393,28.5679 -6.99463,37.67416 -6.92478,76.9791 0.0554,31.19633 0.46884,38.97706 2.85617,53.91542 4.13592,25.88 13.20545,60.6017 18.80495,71.99346 l 1.72734,3.51435 8.61031,-5.09864 c 15.46578,-9.1582 34.1335,-15.20159 51.54966,-16.68811 8.84096,-0.75461 10.22568,-1.20765 10.58631,-3.47141 2.26938,-14.2459 18.44627,-51.23706 28.58809,-65.3693 l 5.79816,-8.07737 -2.40729,-5.59358 c -6.30562,-14.65687 -3.94692,-29.66906 6.32406,-40.2377 7.13703,-7.34385 15.66715,-10.60177 26.55708,-10.1453 l 7.62893,0.31868 4.99719,-7.16657 c 2.74849,-3.9422 6.88792,-8.64487 9.20003,-10.45041 2.3121,-1.80558 28.16438,-19.09176 57.44903,-38.41384 29.28464,-19.32209 61.23119,-40.4773 70.99273,-47.01101 9.76155,-6.53375 24.73425,-16.44523 33.27062,-22.02633 60.06436,-39.26995 203.76467,-135.19872 207.37587,-138.43626 1.73135,-1.55221 -30.62125,-21.55902 -51.34502,-31.75124 -43.67188,-21.47839 -90.59088,-32.83704 -141.58497,-34.25085 z m -28.06658,84.76718 c 1.79526,-0.31438 3.8191,0.0616 5.83995,1.42155 3.7779,2.54244 4.17418,9.6352 0.71735,12.84831 -3.19444,2.96923 -7.23463,2.698 -10.31126,-0.69383 -4.96363,-5.47214 -1.63191,-12.63288 3.75396,-13.57603 z m 306.21073,29.44602 c 2.69731,0 3.11803,0.59374 3.11803,4.39803 0,6.87231 3.18396,13.03619 8.79734,17.03162 2.83164,2.01545 5.14683,3.83595 5.14683,4.04547 0,0.20952 -0.89571,1.30192 -1.9914,2.42728 -3.15208,3.23742 -7.27316,2.41423 -12.96278,-2.58775 -6.50253,-5.7167 -8.85135,-12.89389 -6.66733,-20.381 1.15894,-3.97299 2.04836,-4.93365 4.55931,-4.93365 z m 16.45927,69.49158 c -0.98524,-0.38831 -4.24878,1.01992 -7.25043,3.13015 -3.00169,2.11024 -27.42074,18.16078 -54.26501,35.66564 -26.84427,17.50481 -59.49784,38.82678 -72.56383,47.38165 -13.06599,8.55487 -30.18075,19.69828 -38.03237,24.76549 -7.85162,5.06718 -27.1125,17.60345 -42.80072,27.85719 -47.38296,30.96938 -86.09171,56.02463 -100.03412,64.74778 l -13.19602,8.25593 0.25085,16.57736 c 0.28836,19.11627 -1.30141,27.1765 -8.22964,41.74965 -5.57852,11.73414 -18.21677,25.89573 -28.79273,32.26202 -21.41806,12.89279 -47.67036,15.27396 -68.53924,6.21735 -11.23187,-4.87436 -12.08743,-4.73365 -16.95217,2.75499 -16.55732,25.48779 -19.86168,46.96183 -13.62511,88.53918 3.79805,25.32048 3.84691,28.10294 0.68433,38.6195 -4.3772,14.55561 -17.81781,25.19302 -34.11998,27.00517 l -7.0326,0.78197 5.0258,4.05677 c 23.0558,18.60579 68.52336,39.87982 106.67282,49.91291 17.95648,4.72243 40.76416,8.76818 58.08716,10.30349 73.37781,6.50337 153.19797,-13.23501 215.51529,-53.29391 32.28283,-20.7521 69.31293,-54.85327 88.97912,-81.94214 39.46021,-54.35387 63.29254,-115.86041 70.8871,-182.9409 2.87064,-25.35552 1.86768,-76.37128 -1.95619,-99.48 -6.23982,-37.70919 -16.24084,-69.92523 -31.20661,-100.53094 -3.14379,-6.42922 -6.52043,-12.00798 -7.5057,-12.3963 z m -221.09559,33.55251 c 0.75063,0.40925 0.89446,2.93784 0.38508,7.56207 -1.90599,17.30305 4.53971,33.66354 15.93996,40.45917 4.29198,2.55839 5.70574,4.18776 5.70574,6.57219 -0.002,4.99614 -7.20608,5.01493 -14.83315,0.0362 -14.79004,-9.65448 -19.87021,-32.05498 -11.22003,-49.46993 1.91597,-3.85734 3.27176,-5.56892 4.0224,-5.15965 z m -346.712,93.66719 c 1.78433,0.0613 3.42223,0.82485 4.70673,2.28265 2.47464,2.8085 2.7751,9.7435 0.5061,11.67761 -0.87547,0.74624 -3.10886,1.74843 -4.96198,2.22612 -7.20246,1.85668 -11.9924,-9.83411 -5.84217,-14.25857 1.87533,-1.3491 3.80698,-1.98919 5.59132,-1.92781 z m 332.28592,63.81439 h 131.99987 c 15.25626,0 27.53628,12.61488 27.53628,28.28435 v 125.57439 c 0,15.66948 -12.28002,28.28435 -27.53628,28.28435 H 568.90644 c -15.25624,0 -27.53848,-12.61487 -27.53848,-28.28435 V 562.05768 c 0,-15.66947 12.28224,-28.28435 27.53848,-28.28435 z m -140.35272,24.39031 2.67352,6.20832 c 7.26129,16.85989 0.33793,36.54195 -15.85415,45.06737 -6.55888,3.45339 -20.9834,4.46411 -27.57149,1.93235 -8.28584,-3.18424 -19.22232,-12.90858 -16.88836,-15.0157 1.46516,-1.32274 46.28828,-31.21624 52.86772,-35.25881 z m 159.3337,0.16498 c -11.11035,0 -20.05479,9.1867 -20.05479,20.59797 v 91.45011 c 0,11.41127 8.94444,20.59798 20.05479,20.59798 h 93.85528 c 11.11035,-2e-5 20.05479,-9.18671 20.05479,-20.59798 v -91.45011 c 0,-11.41127 -8.94444,-20.59797 -20.05479,-20.59797 z M 69.860327,851.63612 c 0.884412,-0.10598 1.83188,-0.0487 2.827568,0.20793 5.765882,1.48634 7.206373,10.90663 2.25985,14.77611 -2.867022,2.24278 -5.766749,2.04452 -8.792952,-0.60343 -5.55659,-4.86205 -2.485345,-13.63817 3.705534,-14.38061 z" />
    <path
       d="m 734.80908,469.36012 c -6.61958,-0.0387 -11.55989,2.11576 -16.37158,7.13937 -1.98953,2.07729 -11.67416,13.91874 -21.52125,26.31327 -9.84695,12.39453 -23.75317,29.88464 -30.90236,38.86702 -7.14936,8.98235 -17.3031,21.75326 -22.56324,28.38007 -48.7174,61.37467 -52.52722,66.06008 -53.70713,66.06008 -0.60028,0 -5.02537,-3.50432 -9.83316,-7.78843 -11.79394,-10.50905 -14.7883,-12.15655 -22.09548,-12.14699 -9.35776,0.0119 -16.42533,4.74904 -20.28039,13.59219 -2.30754,5.29339 -1.705,14.25806 1.30914,19.4768 3.06789,5.31203 28.65349,28.86532 36.51962,33.61849 6.75509,4.08172 13.15786,5.1078 20.12124,3.22494 10.04517,-2.71608 7.78029,-0.21686 59.98124,-66.17978 56.65809,-71.59514 79.54369,-100.22856 90.99026,-113.84048 6.38764,-7.59598 8.26304,-11.5047 8.2867,-17.26861 0.045,-11.05007 -8.4938,-19.38097 -19.93361,-19.44794 z"
       style="display:inline;fill:#22c55e;stroke-width:0.558529"
       id="path9" />
  </g>
</svg>
